<svg xmlns="http://www.w3.org/2000/svg" xmlns:xlink="http://www.w3.org/1999/xlink" width="432" zoomAndPan="magnify" viewBox="0 0 324 323.999988" height="432" preserveAspectRatio="xMidYMid meet" version="1.2"><defs><clipPath id="401d75fb21"><path d="M 51.003906 40.933594 L 273.722656 40.933594 L 273.722656 263.652344 L 51.003906 263.652344 Z M 51.003906 40.933594 "/></clipPath><clipPath id="d49af00c39"><path d="M 74.644531 90.019531 L 249 90.019531 L 249 217.285156 L 74.644531 217.285156 Z M 74.644531 90.019531 "/></clipPath><clipPath id="8edadef788"><path d="M 74.644531 143.078125 L 249 143.078125 L 249 270.34375 L 74.644531 270.34375 Z M 74.644531 143.078125 "/></clipPath></defs><g id="89a7008744"><path style=" stroke:none;fill-rule:nonzero;fill:#cd9a00;fill-opacity:1;" d="M 37.027344 323.996094 L 296.226562 323.996094 L 296.226562 314.742188 L 314.742188 314.742188 L 314.742188 296.226562 L 323.996094 296.226562 L 323.996094 27.769531 L 314.742188 27.769531 L 314.742188 9.257812 L 296.226562 9.257812 L 296.226562 0 L 27.769531 0 L 27.769531 9.257812 L 9.257812 9.257812 L 9.257812 27.769531 L 0 27.769531 L 0 296.226562 L 9.257812 296.226562 L 9.257812 314.742188 L 27.769531 314.742188 L 27.769531 323.996094 Z M 37.027344 323.996094 "/><path style=" stroke:none;fill-rule:nonzero;fill:#cd9a00;fill-opacity:1;" d="M 305.484375 259.199219 L 305.484375 268.453125 L 286.96875 268.453125 L 286.96875 277.710938 L 37.027344 277.710938 L 37.027344 268.453125 L 18.515625 268.453125 L 18.515625 259.199219 L 9.257812 259.199219 L 9.257812 286.96875 L 18.515625 286.96875 L 18.515625 305.484375 L 37.027344 305.484375 L 37.027344 314.742188 L 286.96875 314.742188 L 286.96875 305.484375 L 305.484375 305.484375 L 305.484375 286.96875 L 314.742188 286.96875 L 314.742188 259.199219 Z M 305.484375 259.199219 "/><path style=" stroke:none;fill-rule:nonzero;fill:#fecc00;fill-opacity:1;" d="M 305.476562 46.285156 L 305.476562 37.027344 L 296.21875 37.027344 L 296.21875 27.769531 L 27.769531 27.769531 L 27.769531 37.027344 L 18.515625 37.027344 L 18.515625 46.285156 L 9.257812 46.285156 L 9.257812 259.199219 L 18.515625 259.199219 L 18.515625 268.453125 L 37.027344 268.453125 L 37.027344 277.710938 L 286.96875 277.710938 L 286.96875 268.453125 L 305.476562 268.453125 L 305.476562 259.199219 L 314.734375 259.199219 L 314.734375 46.285156 Z M 120.34375 231.429688 L 120.34375 222.167969 L 111.085938 222.167969 L 111.085938 212.910156 L 92.570312 212.910156 L 92.570312 203.65625 L 83.3125 203.65625 L 83.3125 194.398438 L 64.800781 194.398438 L 64.800781 185.140625 L 55.542969 185.140625 L 55.542969 157.382812 L 92.570312 157.382812 L 92.570312 166.636719 L 101.828125 166.636719 L 101.828125 175.894531 L 111.085938 175.894531 L 111.085938 185.152344 L 120.34375 185.152344 L 120.34375 194.410156 L 148.113281 194.410156 L 148.113281 185.140625 L 157.382812 185.140625 L 157.382812 175.882812 L 166.636719 175.882812 L 166.636719 166.625 L 175.894531 166.625 L 175.894531 157.382812 L 185.152344 157.382812 L 185.152344 148.113281 L 194.410156 148.113281 L 194.410156 138.855469 L 203.667969 138.855469 L 203.667969 129.597656 L 212.925781 129.597656 L 212.925781 120.339844 L 222.179688 120.339844 L 222.179688 111.085938 L 231.429688 111.085938 L 231.429688 101.828125 L 240.6875 101.828125 L 240.6875 92.570312 L 249.941406 92.570312 L 249.941406 83.3125 L 268.457031 83.3125 L 268.457031 120.339844 L 259.199219 120.339844 L 259.199219 129.597656 L 249.941406 129.597656 L 249.941406 138.855469 L 240.683594 138.855469 L 240.683594 148.113281 L 231.429688 148.113281 L 231.429688 157.382812 L 222.167969 157.382812 L 222.167969 166.636719 L 212.910156 166.636719 L 212.910156 175.894531 L 203.65625 175.894531 L 203.65625 185.152344 L 194.398438 185.152344 L 194.398438 194.410156 L 185.140625 194.410156 L 185.140625 203.667969 L 175.882812 203.667969 L 175.882812 212.925781 L 166.625 212.925781 L 166.625 231.429688 L 157.382812 231.429688 L 157.382812 240.6875 L 129.597656 240.6875 L 129.597656 231.429688 Z M 120.34375 231.429688 "/><path style=" stroke:none;fill-rule:nonzero;fill:#ffdf13;fill-opacity:1;" d="M 305.484375 37.027344 L 314.742188 37.027344 L 314.742188 46.285156 L 305.484375 46.285156 Z M 305.484375 37.027344 "/><path style=" stroke:none;fill-rule:nonzero;fill:#ffdf13;fill-opacity:1;" d="M 9.257812 37.027344 L 18.515625 37.027344 L 18.515625 46.285156 L 9.257812 46.285156 Z M 9.257812 37.027344 "/><path style=" stroke:none;fill-rule:nonzero;fill:#ffdf13;fill-opacity:1;" d="M 305.484375 18.515625 L 286.96875 18.515625 L 286.96875 9.257812 L 37.027344 9.257812 L 37.027344 18.515625 L 18.515625 18.515625 L 18.515625 37.027344 L 27.769531 37.027344 L 27.769531 27.769531 L 296.226562 27.769531 L 296.226562 37.027344 L 305.484375 37.027344 Z M 305.484375 18.515625 "/><path style=" stroke:none;fill-rule:nonzero;fill:#cd9a00;fill-opacity:1;" d="M 249.941406 83.3125 L 249.941406 92.570312 L 240.683594 92.570312 L 240.683594 101.828125 L 231.425781 101.828125 L 231.425781 111.085938 L 222.167969 111.085938 L 222.167969 120.34375 L 212.910156 120.34375 L 212.910156 129.597656 L 203.65625 129.597656 L 203.65625 138.855469 L 194.398438 138.855469 L 194.398438 148.113281 L 185.140625 148.113281 L 185.140625 157.367188 L 175.882812 157.367188 L 175.882812 166.625 L 166.625 166.625 L 166.625 175.882812 L 157.367188 175.882812 L 157.367188 185.140625 L 148.113281 185.140625 L 148.113281 194.398438 L 120.34375 194.398438 L 120.34375 185.140625 L 111.085938 185.140625 L 111.085938 175.882812 L 101.828125 175.882812 L 101.828125 166.625 L 92.570312 166.625 L 92.570312 157.367188 L 55.542969 157.367188 L 55.542969 185.140625 L 74.058594 185.140625 L 64.800781 185.140625 L 64.800781 194.398438 L 83.3125 194.398438 L 83.3125 203.65625 L 92.570312 203.65625 L 92.570312 212.910156 L 111.085938 212.910156 L 111.085938 222.167969 L 120.34375 222.167969 L 120.34375 231.425781 L 129.601562 231.425781 L 129.601562 240.683594 L 157.367188 240.683594 L 157.367188 231.425781 L 166.625 231.425781 L 166.625 212.910156 L 175.882812 212.910156 L 175.882812 203.65625 L 185.140625 203.65625 L 185.140625 194.398438 L 194.398438 194.398438 L 194.398438 185.140625 L 203.65625 185.140625 L 203.65625 175.882812 L 212.910156 175.882812 L 212.910156 166.625 L 222.167969 166.625 L 222.167969 157.367188 L 231.425781 157.367188 L 231.425781 148.113281 L 240.683594 148.113281 L 240.683594 138.855469 L 249.941406 138.855469 L 249.941406 129.597656 L 259.199219 129.597656 L 259.199219 120.34375 L 268.453125 120.34375 L 268.453125 83.3125 Z M 249.941406 83.3125 "/><path style=" stroke:none;fill-rule:nonzero;fill:#cd9a00;fill-opacity:1;" d="M 314.742188 27.769531 L 314.742188 9.257812 L 296.226562 9.257812 L 296.226562 0 L 27.769531 0 L 27.769531 9.257812 L 9.257812 9.257812 L 9.257812 27.769531 L 0 27.769531 L 0 296.226562 L 9.257812 296.226562 L 9.257812 314.742188 L 27.769531 314.742188 L 27.769531 323.996094 L 296.226562 323.996094 L 296.226562 314.742188 L 314.742188 314.742188 L 314.742188 296.226562 L 323.996094 296.226562 L 323.996094 27.769531 Z M 314.742188 46.285156 L 314.742188 286.96875 L 305.476562 286.96875 L 305.476562 305.476562 L 286.960938 305.476562 L 286.960938 314.734375 L 37.027344 314.734375 L 37.027344 305.476562 L 18.515625 305.476562 L 18.515625 286.960938 L 9.257812 286.960938 L 9.257812 37.027344 L 18.515625 37.027344 L 18.515625 18.515625 L 37.027344 18.515625 L 37.027344 9.257812 L 286.96875 9.257812 L 286.96875 18.515625 L 305.476562 18.515625 L 305.476562 37.027344 L 314.734375 37.027344 Z M 314.742188 46.285156 "/><g clip-rule="nonzero" clip-path="url(#401d75fb21)"><path style=" stroke:none;fill-rule:nonzero;fill:#fecc00;fill-opacity:1;" d="M 51.003906 40.933594 L 273.691406 40.933594 L 273.691406 263.621094 L 51.003906 263.621094 Z M 51.003906 40.933594 "/></g><g clip-rule="nonzero" clip-path="url(#d49af00c39)"><path style=" stroke:none;fill-rule:nonzero;fill:#ffffff;fill-opacity:1;" d="M 137.339844 105.683594 L 137.339844 121.347656 L 121.675781 121.347656 L 121.675781 137.011719 L 106.011719 137.011719 L 106.011719 152.679688 L 90.347656 152.679688 L 90.347656 168.34375 L 74.683594 168.34375 L 74.683594 217.285156 L 248.941406 217.285156 L 248.941406 168.34375 L 233.277344 168.34375 L 233.277344 152.679688 L 217.613281 152.679688 L 217.613281 137.011719 L 201.949219 137.011719 L 201.949219 121.347656 L 186.285156 121.347656 L 186.285156 105.683594 L 170.621094 105.683594 L 170.621094 90.019531 L 153.003906 90.019531 L 153.003906 105.683594 Z M 137.339844 105.683594 "/></g><path style=" stroke:none;fill-rule:nonzero;fill:#ffffff;fill-opacity:1;" d="M 168.671875 123.296875 L 184.335938 123.296875 L 184.335938 138.960938 L 200 138.960938 L 200 154.628906 L 215.664062 154.628906 L 215.664062 170.292969 L 231.328125 170.292969 L 231.328125 199.667969 L 92.296875 199.667969 L 92.296875 170.292969 L 107.960938 170.292969 L 107.960938 154.628906 L 123.625 154.628906 L 123.625 138.960938 L 139.289062 138.960938 L 139.289062 123.296875 L 154.957031 123.296875 L 154.957031 107.632812 L 168.671875 107.632812 Z M 168.671875 123.296875 "/><g clip-rule="nonzero" clip-path="url(#8edadef788)"><path style=" stroke:none;fill-rule:nonzero;fill:#fecc00;fill-opacity:1;" d="M 137.339844 158.742188 L 137.339844 174.40625 L 121.675781 174.40625 L 121.675781 190.070312 L 106.011719 190.070312 L 106.011719 205.734375 L 90.347656 205.734375 L 90.347656 221.398438 L 74.683594 221.398438 L 74.683594 270.34375 L 248.941406 270.34375 L 248.941406 221.398438 L 233.277344 221.398438 L 233.277344 205.734375 L 217.613281 205.734375 L 217.613281 190.070312 L 201.949219 190.070312 L 201.949219 174.40625 L 186.285156 174.40625 L 186.285156 158.742188 L 170.621094 158.742188 L 170.621094 143.078125 L 153.003906 143.078125 L 153.003906 158.742188 Z M 137.339844 158.742188 "/></g><path style=" stroke:none;fill-rule:nonzero;fill:#fecc00;fill-opacity:1;" d="M 168.671875 176.355469 L 184.335938 176.355469 L 184.335938 192.019531 L 200 192.019531 L 200 207.683594 L 215.664062 207.683594 L 215.664062 223.347656 L 231.328125 223.347656 L 231.328125 252.726562 L 92.296875 252.726562 L 92.296875 223.347656 L 107.960938 223.347656 L 107.960938 207.683594 L 123.625 207.683594 L 123.625 192.019531 L 139.289062 192.019531 L 139.289062 176.355469 L 154.957031 176.355469 L 154.957031 160.691406 L 168.671875 160.691406 Z M 168.671875 176.355469 "/></g></svg>